<?xml version="1.0" encoding="utf-8"?>
<!-- Generator: Adobe Illustrator 22.0.1, SVG Export Plug-In . SVG Version: 6.00 Build 0)  -->
<svg version="1.1" id="callback" xmlns="http://www.w3.org/2000/svg" xmlns:xlink="http://www.w3.org/1999/xlink" x="0px" y="0px"
	 viewBox="0 0 750 750" style="enable-background:new 0 0 750 750;" xml:space="preserve">
<style type="text/css">
	.st0{fill:#FFFFFF;}
	.st1{fill:#CA0000;}
</style>
<g id="XMLID_1_">
	<g id="XMLID_95_">
		<path id="XMLID_20_" d="M375,20c47.9,0,94.4,9.4,138.2,27.9C555.4,65.8,593.4,91.4,626,124c32.6,32.6,58.2,70.6,76.1,112.8
			C720.6,280.6,730,327.1,730,375s-9.4,94.4-27.9,138.2c-17.9,42.3-43.5,80.2-76.1,112.8c-32.6,32.6-70.6,58.2-112.8,76.1
			C469.4,720.6,422.9,730,375,730c-47.9,0-94.4-9.4-138.2-27.9c-42.3-17.9-80.2-43.5-112.8-76.1c-32.6-32.6-58.2-70.6-76.1-112.8
			C29.4,469.4,20,422.9,20,375s9.4-94.4,27.9-138.2C65.8,194.6,91.4,156.6,124,124c32.6-32.6,70.6-58.2,112.8-76.1
			C280.6,29.4,327.1,20,375,20 M375,0C167.9,0,0,167.9,0,375s167.9,375,375,375s375-167.9,375-375S582.1,0,375,0L375,0z"/>
	</g>
	<g id="XMLID_96_">
		<path id="XMLID_8_" d="M378.1,357.9c-22.2-25.6-34.3-58.2-34.2-92.1c0.2-76.3,62.4-138.9,138.7-139.6c0.4,0,0.8,0,1.2,0
			c37,0,71.9,14.3,98.2,40.3c26.3,25.9,41.1,60.6,41.7,97.5c0.6,37.6-13.7,73.1-40.2,100.1c-26.6,27.1-61.9,42-99.3,42h-0.5
			c-17.3,0-34.1-3.1-50-9.2l-67.8,34.9c-2.6,1.3-5.5-1-4.8-3.8L378.1,357.9z"/>
		<path id="XMLID_10_" class="st0" d="M481.6,146.2c-64.9,1.2-117.5,54.7-117.7,119.6c-0.1,31.5,12,60.2,31.7,81.6
			c2.8,3,3.9,7.2,2.9,11.2l-7.6,31.7c-0.7,2.8,2.2,5.1,4.8,3.8l32.1-16.5c3.2-1.7,7-1.8,10.4-0.4c14.2,5.8,29.8,9.1,46.1,9
			c66.5-0.2,120.6-55.4,119.6-121.9C602.8,198.1,548.3,145,481.6,146.2z"/>
		<path id="XMLID_5_" class="st1" d="M483.9,366.1c-13.2,0-26-2.5-38-7.5c-4-1.6-8.2-2.5-12.4-2.5c-5.1,0-10.2,1.2-14.7,3.6l0,0
			c1.2-9.4-1.8-18.8-8.3-25.9c-17.1-18.6-26.5-42.7-26.4-68c0.1-54,44.1-98.7,98.1-99.7c0.6,0,1.3,0,1.9,0
			c26.4,0,51.3,10.2,70.2,28.8c18.8,18.5,29.4,43.3,29.8,69.6c0.4,26.8-9.8,52.2-28.7,71.5c-19,19.4-44.2,30.1-70.8,30.1H483.9z"/>
		<path id="XMLID_12_" d="M240.4,358.7c-3.5,0-5.9-2.4-7-3.5c-29.5-29.7-56.9-57.1-83.6-83.7c-4.1-4.1-4.6-8.8-1.3-13.5
			c4.4-6.4,9.3-12.6,15.1-18.9c4.2-4.7,8.8-7,13.5-7c4.4,0,8.7,2,12.7,6.1c8.7,8.6,34.2,34.2,52.9,52.8c7.7,7.7,14.1,14.1,17.4,17.4
			l0.1,0.1c6.6,6.8,7.6,15,2.9,22.6L263,331c-1.6,2.4-3.2,4.7-4.8,7.1c-3.4,5.1-7,10.4-10.3,15.7C245.9,357,243.3,358.7,240.4,358.7
			z"/>
		<path id="XMLID_11_" d="M486.1,603.7c-3.7,0-6.2-2.1-8-3.9c-20.8-21-76.8-77-83.3-83.2c-1-1-3.8-3.6-3.4-7.6
			c0.4-3.9,3.6-6,4.6-6.7c4.9-3.2,9.9-6.6,14.8-9.8c2.9-2,5.9-4,8.9-5.9l0.1-0.1c2.7-1.7,5.6-2.6,8.6-2.6c4.2,0,8.4,1.7,12.5,5
			l0.2,0.2l18.3,18.3c17.4,17.3,35.3,35.3,52.9,53c4,4.1,6,8.4,5.9,12.9c-0.1,4.6-2.4,9-6.9,13c-6,5.4-12.2,10.4-18.4,14.8
			C491.4,602.2,489.1,603.7,486.1,603.7z"/>
		<path id="XMLID_9_" d="M419.5,623.8c-1.5,0-3,0-4.5-0.1c-0.4,0-0.9,0-1.3,0c-6.8,0-12.5-0.6-17.8-1.9c-19.2-2.7-37-9.5-53.1-20.5
			c-4.5-2.4-8.8-5.6-13.1-9.7c-12.7-10.9-172.4-172.9-179.6-182.1l0,0c-11.4-15.9-18.7-33.8-21.9-53.4c-1.5-7.1-2.1-13.2-2-19
			c-0.9-17.4,2-34.9,8.9-53.4c1.8-4.9,5.2-5.6,7-5.6c3.1,0,5.1,2,5.9,2.9c2.2,2.3,11.1,11.1,22.2,22.2
			c28.4,28.3,50.5,50.4,54.1,54.4c5.5,4.8,8.5,7.4,9.3,11.8c0.8,4.9-1.9,8.7-5.7,13.9c-9.4,13-8.6,25.3,2.3,36.6l100.6,100.6
			c7.2,5.6,13.2,8.2,18.9,8.2c4,0,8.2-1.3,12.7-4c3.5-2.1,7-4.4,10.7-7.1c0.7-0.5,3-2.2,6-2.2c2.6,0,5,1.2,7.1,3.6
			c3.1,3.5,75.7,75.9,82.5,82.5c1.3,1.2,3.9,3.8,3.1,7.7c-0.8,4-4.6,5.4-5.8,5.8C450.1,621,434.9,623.8,419.5,623.8
			C419.5,623.8,419.5,623.8,419.5,623.8z"/>
	</g>
</g>
</svg>
